<?xml version="1.0" encoding="utf-8"?>
<!-- Generator: Adobe Illustrator 16.0.0, SVG Export Plug-In . SVG Version: 6.00 Build 0)  -->
<!DOCTYPE svg PUBLIC "-//W3C//DTD SVG 1.1//EN" "http://www.w3.org/Graphics/SVG/1.1/DTD/svg11.dtd">
<svg version="1.1" xmlns="http://www.w3.org/2000/svg" xmlns:xlink="http://www.w3.org/1999/xlink" x="0px" y="0px" width="422px"
	 height="96px" viewBox="0 0 422 96" enable-background="new 0 0 422 96" xml:space="preserve">
<g id="Layer_1">
	<g>
		<g>
			<path d="M-1833-392v96h45.713l14.287-14.269v-28.779l-4.99-4.854l4.99-4.99v-28.916L-1787.287-392H-1833z M-1814-374h22v21h-22
				V-374z M-1792-315h-22v-20h22V-315z"/>
			<rect x="-1762" y="-352" width="19" height="96"/>
			<polygon points="-1719,-355 -1709,-355 -1709,-335 -1732,-335 -1732,-394 -1709,-394 -1709,-379 -1691,-379 -1691,-398.22 
				-1704.604,-412 -1735.844,-412 -1750,-397.808 -1750,-330.269 -1735.844,-316 -1704.604,-316 -1691,-329.859 -1691,-373 
				-1719,-373 			"/>
		</g>
	</g>
	<polygon points="159,18 159,0 111,0 92,0 92,39 72,39 72,0 53.59,0 0,0 0,18 18,18 18,96 36,96 36,18 54,18 54,96 72,96 72,57 
		92,57 92,96 111,96 159,96 159,77 129,77 129,57 153,57 153,39 129,39 129,18 	"/>
	<rect x="178" y="18" width="22" height="21"/>
	<rect x="178" y="57" width="22" height="20"/>
	<polygon points="287,33 287,18 264,18 264,77 287,77 287,57 277,57 277,39 305,39 305,33 	"/>
	<polygon points="305,82.141 291.396,96 305,96 	"/>
	<polygon points="204.713,0 219,14.192 219,43.108 214.01,48.098 219,52.951 219,81.73 204.713,96 223,96 223,0 	"/>
	<polygon points="305,0 291.396,0 305,13.78 	"/>
	<polygon points="260.156,0 242,0 242,96 260.156,96 246,81.73 246,14.192 	"/>
	<polygon points="305,33 305,14.192 305,13.78 305,33 	"/>
	<polygon points="305,81.73 305,39 305,39 305,82.141 	"/>
	<path d="M403,0v39h-20V0h-18v14.192L350.664,0h-31.24L305,14.192V81.73L319.424,96h31.24L365,81.73V96h18V57h20v39h19V0H403z
		 M346,77h-22V18h22V77z"/>
</g>
<g id="Layer_2">
	<g>
	</g>
	<g>
	</g>
	<g>
	</g>
	<g>
	</g>
	<g>
	</g>
	<g>
	</g>
	<g>
	</g>
	<g>
	</g>
	<g>
	</g>
	<g>
	</g>
	<g>
	</g>
	<g>
	</g>
	<g>
	</g>
	<g>
	</g>
	<g>
	</g>
</g>
</svg>
